<svg width="16" height="16" viewBox="0 0 16 16" fill="none" xmlns="http://www.w3.org/2000/svg">
<path d="M8.81143 15.6686L15.6686 8.81147C15.7757 8.70522 15.8607 8.57882 15.9187 8.43956C15.9768 8.30029 16.0066 8.15091 16.0066 8.00004C16.0066 7.84917 15.9768 7.69979 15.9187 7.56052C15.8607 7.42125 15.7757 7.29485 15.6686 7.18861L8.81143 0.331466C8.59622 0.116262 8.30435 -0.00463867 8 -0.00463867C7.69566 -0.00463867 7.40378 0.116262 7.18857 0.331466C6.97337 0.54667 6.85247 0.83855 6.85247 1.14289C6.85247 1.44724 6.97337 1.73912 7.18857 1.95432L11.6114 6.36575C11.651 6.40778 11.6775 6.46042 11.6876 6.51725C11.6978 6.57407 11.6912 6.63263 11.6686 6.68575C11.6479 6.73345 11.6147 6.77462 11.5724 6.80483C11.5301 6.83504 11.4804 6.85314 11.4286 6.85718H1.14286C0.839753 6.85718 0.549062 6.97759 0.334735 7.19192C0.120408 7.40624 0 7.69693 0 8.00004C0 8.30314 0.120408 8.59383 0.334735 8.80816C0.549062 9.02249 0.839753 9.1429 1.14286 9.1429H11.4286C11.4843 9.1427 11.5389 9.15883 11.5856 9.18929C11.6324 9.21975 11.6691 9.26322 11.6914 9.31432C11.714 9.36745 11.7206 9.426 11.7105 9.48283C11.7003 9.53966 11.6739 9.5923 11.6343 9.63433L7.18857 14.0458C6.97337 14.261 6.85247 14.5528 6.85247 14.8572C6.85247 15.1615 6.97337 15.4534 7.18857 15.6686C7.40378 15.8838 7.69566 16.0047 8 16.0047C8.30435 16.0047 8.59622 15.8838 8.81143 15.6686Z" fill="#00AEEF"/>
</svg>
